<?xml version="1.0" encoding="UTF-8"?>
<svg xmlns="http://www.w3.org/2000/svg" version="1.1" viewBox="810 470 210 150" width="40" height="40">
  <defs>
    <style>
      .cls-1 {
        fill: #dbfe78;
      }
    </style>
  </defs>
  <!-- Generator: Adobe Illustrator 28.7.1, SVG Export Plug-In . SVG Version: 1.2.0 Build 142)  -->
  <g>
    <g id="Capa_1">
      <g>
        <polygon class="cls-1" points="831.49 512.32 923.1 471.88 1013.17 512.32 1013.17 527.76 991.43 536.1 991.43 521.82 996.09 519.46 923.1 487.35 848.56 519.46 854.8 521.82 854.8 537.29 831.49 526.6 831.49 512.32"/>
        <polygon class="cls-1" points="831.46 532.33 831.46 591.8 854.77 602.49 854.77 588.21 848.53 584.66 848.53 539.47 831.46 532.33"/>
        <polygon class="cls-1" points="858.27 578.1 859.83 603.19 864.48 607.96 904.85 625.87 909.51 625.87 912.61 624.7 912.61 547.01 859.83 524.33 859.83 537.47 895.51 552.99 895.51 610.36 875.34 600.78 875.34 584.07 858.27 576.9 858.27 578.1"/>
        <polygon class="cls-1" points="931.37 545.82 931.37 625.87 948.47 618.8 948.47 583.51 967.08 575.26 968.64 609.4 984.15 603.49 984.15 523.48 968.64 530.54 968.64 563.5 948.47 571.71 948.47 539.94 931.37 545.82"/>
        <polygon class="cls-1" points="996.01 539.47 996.01 584.66 989.79 587.02 989.79 602.49 1011.53 592.96 1011.53 533.52 996.01 539.47"/>
        <rect class="cls-1" x="908.33" y="500.13" width="14" height="11"/>
        <rect class="cls-1" x="924.69" y="512.66" width="14" height="11"/>
        <rect class="cls-1" x="908.33" y="512.77" width="14" height="11"/>
        <rect class="cls-1" x="924.69" y="499.8" width="14" height="11"/>
      </g>
    </g>
  </g>
</svg>